HIERARCHY
ROOT Hips
{
    OFFSET   0.000000   0.000000   0.000000
    CHANNELS 6 Xposition Yposition Zposition Zrotation Xrotation Yrotation
    JOINT Chest
    {
        OFFSET   0.000000   8.007230   0.000000
        CHANNELS 3 Zrotation Xrotation Yrotation
        JOINT Chest2
        {
            OFFSET   0.000000  22.077100   0.000000
            CHANNELS 3 Zrotation Xrotation Yrotation
            JOINT Neck
            {
                OFFSET   0.000000  23.254800  -0.000021
                CHANNELS 3 Zrotation Xrotation Yrotation
                JOINT Head
                {
                    OFFSET   0.000000  14.370000   1.956610
                    CHANNELS 3 Zrotation Xrotation Yrotation
                    End Site
                    {
                        OFFSET   0.000000  19.566000   0.000000
                    }
                }
            }
            JOINT LeftCollar
            {
                OFFSET   3.911900  19.017000  -0.467063
                CHANNELS 3 Zrotation Xrotation Yrotation
                JOINT LeftShoulder
                {
                    OFFSET  10.383700   0.000000   0.000000
                    CHANNELS 3 Zrotation Xrotation Yrotation
                    JOINT LeftElbow
                    {
                        OFFSET  26.662100   0.001529   0.000325
                        CHANNELS 3 Zrotation Xrotation Yrotation
                        JOINT LeftWrist
                        {
                            OFFSET  28.869000  -0.000011  -0.000096
                            CHANNELS 3 Zrotation Xrotation Yrotation
                            JOINT LeftFinger0
                            {
                                OFFSET   2.044650  -2.323460   3.252850
                                CHANNELS 3 Zrotation Xrotation Yrotation
                                JOINT LeftFinger01
                                {
                                    OFFSET   3.088130   0.000000   0.000000
                                    CHANNELS 3 Zrotation Xrotation Yrotation
                                    JOINT LeftFinger02
                                    {
                                        OFFSET   2.639460   0.000000   0.000000
                                        CHANNELS 3 Zrotation Xrotation Yrotation
                                        End Site
                                        {
                                            OFFSET   2.582190   0.000000   0.000000
                                        }
                                    }
                                }
                            }
                            JOINT LeftFinger1
                            {
                                OFFSET   8.364480   0.000000   3.252850
                                CHANNELS 3 Zrotation Xrotation Yrotation
                                JOINT LeftFinger11
                                {
                                    OFFSET   4.646930   0.000000   0.000000
                                    CHANNELS 3 Zrotation Xrotation Yrotation
                                    JOINT LeftFinger12
                                    {
                                        OFFSET   2.323460   0.000000   0.000000
                                        CHANNELS 3 Zrotation Xrotation Yrotation
                                        End Site
                                        {
                                            OFFSET   2.273050   0.000000   0.000000
                                        }
                                    }
                                }
                            }
                            JOINT LeftFinger2
                            {
                                OFFSET   8.364480   0.000016   1.078090
                                CHANNELS 3 Zrotation Xrotation Yrotation
                                JOINT LeftFinger21
                                {
                                    OFFSET   5.111620   0.000000   0.000000
                                    CHANNELS 3 Zrotation Xrotation Yrotation
                                    JOINT LeftFinger22
                                    {
                                        OFFSET   2.788160   0.000017   0.000000
                                        CHANNELS 3 Zrotation Xrotation Yrotation
                                        End Site
                                        {
                                            OFFSET   2.727660   0.000000   0.000000
                                        }
                                    }
                                }
                            }
                            JOINT LeftFinger3
                            {
                                OFFSET   7.899780   0.000015  -1.078090
                                CHANNELS 3 Zrotation Xrotation Yrotation
                                JOINT LeftFinger31
                                {
                                    OFFSET   4.646920   0.000000   0.000000
                                    CHANNELS 3 Zrotation Xrotation Yrotation
                                    JOINT LeftFinger32
                                    {
                                        OFFSET   2.323470   0.000000   0.000000
                                        CHANNELS 3 Zrotation Xrotation Yrotation
                                        End Site
                                        {
                                            OFFSET   2.273050   0.000000   0.000000
                                        }
                                    }
                                }
                            }
                            JOINT LeftFinger4
                            {
                                OFFSET   7.435090   0.000000  -3.252850
                                CHANNELS 3 Zrotation Xrotation Yrotation
                                JOINT LeftFinger41
                                {
                                    OFFSET   3.717550   0.000000   0.000000
                                    CHANNELS 3 Zrotation Xrotation Yrotation
                                    JOINT LeftFinger42
                                    {
                                        OFFSET   1.858760   0.000000   0.000000
                                        CHANNELS 3 Zrotation Xrotation Yrotation
                                        End Site
                                        {
                                            OFFSET   1.818440   0.000000   0.000000
                                        }
                                    }
                                }
                            }
                        }
                    }
                }
            }
            JOINT RightCollar
            {
                OFFSET  -3.911900  19.017000  -0.467062
                CHANNELS 3 Zrotation Xrotation Yrotation
                JOINT RightShoulder
                {
                    OFFSET -10.383700   0.000015   0.000000
                    CHANNELS 3 Zrotation Xrotation Yrotation
                    JOINT RightElbow
                    {
                        OFFSET -26.662100   0.001341   0.000385
                        CHANNELS 3 Zrotation Xrotation Yrotation
                        JOINT RightWrist
                        {
                            OFFSET -28.869000   0.000025  -0.000080
                            CHANNELS 3 Zrotation Xrotation Yrotation
                            JOINT RightFinger0
                            {
                                OFFSET  -2.044650  -2.323490   3.252850
                                CHANNELS 3 Zrotation Xrotation Yrotation
                                JOINT RightFinger01
                                {
                                    OFFSET  -3.088130   0.000000   0.000000
                                    CHANNELS 3 Zrotation Xrotation Yrotation
                                    JOINT RightFinger02
                                    {
                                        OFFSET  -2.639460   0.000000   0.000000
                                        CHANNELS 3 Zrotation Xrotation Yrotation
                                        End Site
                                        {
                                            OFFSET  -2.582190   0.000000   0.000000
                                        }
                                    }
                                }
                            }
                            JOINT RightFinger1
                            {
                                OFFSET  -8.364480   0.000000   3.252850
                                CHANNELS 3 Zrotation Xrotation Yrotation
                                JOINT RightFinger11
                                {
                                    OFFSET  -4.646930   0.000000   0.000000
                                    CHANNELS 3 Zrotation Xrotation Yrotation
                                    JOINT RightFinger12
                                    {
                                        OFFSET  -2.323470   0.000000   0.000000
                                        CHANNELS 3 Zrotation Xrotation Yrotation
                                        End Site
                                        {
                                            OFFSET  -2.273050   0.000000   0.000000
                                        }
                                    }
                                }
                            }
                            JOINT RightFinger2
                            {
                                OFFSET  -8.364480   0.000000   1.078090
                                CHANNELS 3 Zrotation Xrotation Yrotation
                                JOINT RightFinger21
                                {
                                    OFFSET  -5.111610   0.000000   0.000000
                                    CHANNELS 3 Zrotation Xrotation Yrotation
                                    JOINT RightFinger22
                                    {
                                        OFFSET  -2.788160   0.000000   0.000000
                                        CHANNELS 3 Zrotation Xrotation Yrotation
                                        End Site
                                        {
                                            OFFSET  -2.727660   0.000000   0.000000
                                        }
                                    }
                                }
                            }
                            JOINT RightFinger3
                            {
                                OFFSET  -7.899780   0.000000  -1.078090
                                CHANNELS 3 Zrotation Xrotation Yrotation
                                JOINT RightFinger31
                                {
                                    OFFSET  -4.646920   0.000000   0.000000
                                    CHANNELS 3 Zrotation Xrotation Yrotation
                                    JOINT RightFinger32
                                    {
                                        OFFSET  -2.323470   0.000000   0.000000
                                        CHANNELS 3 Zrotation Xrotation Yrotation
                                        End Site
                                        {
                                            OFFSET  -2.273050   0.000000   0.000000
                                        }
                                    }
                                }
                            }
                            JOINT RightFinger4
                            {
                                OFFSET  -7.435090   0.000000  -3.252850
                                CHANNELS 3 Zrotation Xrotation Yrotation
                                JOINT RightFinger41
                                {
                                    OFFSET  -3.717550   0.000000   0.000000
                                    CHANNELS 3 Zrotation Xrotation Yrotation
                                    JOINT RightFinger42
                                    {
                                        OFFSET  -1.858770   0.000000   0.000000
                                        CHANNELS 3 Zrotation Xrotation Yrotation
                                        End Site
                                        {
                                            OFFSET  -1.818440   0.000000   0.000000
                                        }
                                    }
                                }
                            }
                        }
                    }
                }
            }
        }
    }
    JOINT LeftHip
    {
        OFFSET   9.783010   0.000000   0.000000
        CHANNELS 3 Zrotation Xrotation Yrotation
        JOINT LeftKnee
        {
            OFFSET   0.000070 -41.789100   0.000028
            CHANNELS 3 Zrotation Xrotation Yrotation
            JOINT LeftAnkle
            {
                OFFSET   0.000087 -41.133200  -0.000100
                CHANNELS 3 Zrotation Xrotation Yrotation
                JOINT LeftToe
                {
                    OFFSET   0.000000  -6.358960  14.674500
                    CHANNELS 3 Zrotation Xrotation Yrotation
                    End Site
                    {
                        OFFSET   0.000000   0.000000   3.913200
                    }
                }
            }
        }
    }
    JOINT RightHip
    {
        OFFSET  -9.783020   0.000000   0.000000
        CHANNELS 3 Zrotation Xrotation Yrotation
        JOINT RightKnee
        {
            OFFSET   0.000044 -41.789100  -0.000870
            CHANNELS 3 Zrotation Xrotation Yrotation
            JOINT RightAnkle
            {
                OFFSET  -0.000090 -41.133200  -0.000245
                CHANNELS 3 Zrotation Xrotation Yrotation
                JOINT RightToe
                {
                    OFFSET   0.000000  -6.358960  14.674500
                    CHANNELS 3 Zrotation Xrotation Yrotation
                    End Site
                    {
                        OFFSET   0.000000   0.000000   3.913200
                    }
                }
            }
        }
    }
}
MOTION
Frames: 5
Frame Time:   0.016667
  0.527088  90.004700   0.610967  -1.429980  -2.853770  -2.790750   0.061715   2.470490  -1.094030   0.170923   4.939350  -2.193790   1.195120   0.041324  -0.007838   1.965450   0.095769   7.006490  -4.468950  -0.505996   3.224270 -71.591200  18.014100   2.962250  -2.359360  -4.778720 -16.550000  15.976700  -2.379130   5.054540  37.487200  24.222800 -55.424400 -27.966900  -0.005098   0.012395  -8.983860   0.000730   0.000059 -31.319700   7.835370 -12.626000 -26.339500   0.005664  -0.000629 -18.440900   0.002546   0.011891 -28.514500   1.061300  -1.951030 -36.397900   0.001496   0.003723 -24.255900  -0.002649   0.007364 -27.428800   0.386810  -0.732965 -28.871400   0.001187   0.002597 -19.228400   0.000759   0.001895 -31.340500   0.437048  -0.705248 -47.010500  -0.000605  -0.001672 -31.311700   0.004139  -0.002505  10.302700   1.883400   5.901130  69.243900  10.187200  -2.221960   2.246540  -4.483250  12.575300 -20.402600 -13.199500  -2.489390 -35.895300  32.716500  70.125100  33.105400   0.003135  -0.001955  11.550200  -0.010083  -0.010182  28.694100   4.641240   8.419480  23.746700  -0.010769  -0.009217  16.622700  -0.001149  -0.002844  25.714000   2.190320   4.537390  25.802000  -0.007709   0.005236  17.184100  -0.001082  -0.004246  26.065800  -2.754100  -5.605830  26.201300  -0.002624   0.007628  17.464800  -0.007479  -0.010246  34.979900  -3.587110  -5.114010  52.734800   0.006061   0.001541  35.105700   0.006882   0.001104   1.625040   2.684330   1.944450   0.448959   1.461930  11.324500  -5.193960  -2.940230   5.255480   0.000000   0.000000   0.000000   1.812730   2.587840  -5.777330  -0.376165   3.470360 -10.012500  -8.355840  -0.028215   0.938071   0.000000   0.000000  -0.000000
  0.534015  90.004700   0.620197  -1.429970  -2.853770  -2.790460   0.061740   2.473130  -1.093660   0.171031   4.944630  -2.193060   1.195120   0.041262  -0.007751   1.965430   0.094677   7.005450  -4.470390  -0.505897   3.219690 -71.586200  18.014200   2.957370  -2.359300  -4.778480 -16.549700  15.976800  -2.379260   5.051100  37.487600  24.221600 -55.423800 -27.966900  -0.005099   0.012400  -8.984280   0.000726   0.000029 -31.321100   7.835370 -12.626000 -26.339500   0.005660  -0.000634 -18.440700   0.002546   0.011894 -28.514500   1.061330  -1.951030 -36.402400   0.001498   0.003718 -24.256400  -0.002649   0.007363 -27.428700   0.386777  -0.732964 -28.871500   0.001190   0.002600 -19.228500   0.000757   0.001896 -31.340500   0.437012  -0.705248 -47.015800  -0.000605  -0.001664 -31.311700   0.004138  -0.002505  10.302400   1.883360   5.901080  69.244100  10.190000  -2.222200   2.254380  -4.484940  12.574200 -20.395200 -13.199600  -2.484980 -35.901100  32.724800  70.129900  33.099300   0.003145  -0.001964  11.548200  -0.010086  -0.010183  28.686700   4.641230   8.419380  23.746600  -0.010769  -0.009220  16.622700  -0.001146  -0.002839  25.714000   2.190430   4.537620  25.802000  -0.007708   0.005241  17.184100  -0.001081  -0.004245  26.065800  -2.754100  -5.605810  26.201300  -0.002624   0.007635  17.465100  -0.007479  -0.010250  34.979900  -3.587090  -5.113990  52.723100   0.006062   0.001536  35.105700   0.006883   0.001106   1.624660   2.693670   1.949360   0.446996   1.452910  11.324400  -5.189600  -2.940440   5.255450  -0.000000   0.000000  -0.000000   1.808120   2.606280  -5.773300  -0.366158   3.447130 -10.035800  -8.356040  -0.024565   0.955983  -0.000000   0.000000   0.000000
  0.546156  90.004700   0.636422  -1.429950  -2.853770  -2.790160   0.061744   2.478870  -1.092660   0.171090   4.956100  -2.191070   1.195120   0.041172  -0.007664   1.965240   0.091956   7.002280  -4.473790  -0.505799   3.212620 -71.577000  18.014300   2.948040  -2.359280  -4.778240 -16.549500  15.976800  -2.379480   5.044620  37.488500  24.217400 -55.421300 -27.966900  -0.005101   0.012408  -8.984690   0.000722   0.000000 -31.324500   7.835370 -12.626000 -26.339500   0.005651  -0.000641 -18.440600   0.002542   0.011900 -28.514500   1.061380  -1.951030 -36.408600   0.001504   0.003707 -24.256900  -0.002651   0.007358 -27.428600   0.386705  -0.732962 -28.871500   0.001196   0.002610 -19.228500   0.000752   0.001902 -31.340500   0.436932  -0.705250 -47.023600  -0.000606  -0.001646 -31.311700   0.004138  -0.002504  10.302100   1.883330   5.900990  69.244400  10.196800  -2.222470   2.267370  -4.489060  12.572300 -20.382800 -13.199700  -2.478120 -35.910400  32.737600  70.137200  33.090800   0.003155  -0.001980  11.545400  -0.010089  -0.010184  28.679300   4.641220   8.419280  23.746500  -0.010765  -0.009227  16.622600  -0.001136  -0.002822  25.713800   2.190590   4.537940  25.801900  -0.007706   0.005253  17.184000  -0.001077  -0.004241  26.065800  -2.754100  -5.605750  26.201300  -0.002623   0.007658  17.465400  -0.007479  -0.010261  34.979900  -3.587060  -5.113940  52.711300   0.006066   0.001524  35.105700   0.006887   0.001113   1.623850   2.711340   1.957340   0.443325   1.438850  11.324300  -5.181890  -2.941910   5.255310  -0.000000   0.000000  -0.000000   1.799320   2.637890  -5.766600  -0.350297   3.409860 -10.072000  -8.356340  -0.018687   0.985653   0.000000   0.000000   0.000000
  0.557159  90.004700   0.651015  -1.432050  -2.857560  -2.790240   0.060708   2.486150  -1.091050   0.169064   4.970690  -2.187820   1.194670   0.041149  -0.007668   1.964520   0.087385   6.996850  -4.478620  -0.507143   3.208140 -71.568400  18.019000   2.938560  -2.359770  -4.779550 -16.549600  15.975300  -2.379710   5.038030  37.486900  24.206700 -55.414300 -27.962200  -0.005102   0.012415  -8.981800   0.000727   0.000000 -31.328100   7.839290 -12.631100 -26.342300   0.005642  -0.000644 -18.441000   0.002526   0.011902 -28.514500   1.061440  -1.955440 -36.411300   0.001517   0.003692 -24.254300  -0.002657   0.007348 -27.428600   0.386604  -0.738833 -28.871200   0.001205   0.002629 -19.228300   0.000741   0.001919 -31.340400   0.436821  -0.710878 -47.028400  -0.000618  -0.001621 -31.311700   0.004139  -0.002499  10.303700   1.883540   5.900840  69.241600  10.205700  -2.222480   2.277710  -4.495100  12.570700 -20.372700 -13.197500  -2.473620 -35.918500  32.747100  70.142000  33.087700   0.003155  -0.001998  11.544600  -0.010082  -0.010183  28.679900   4.641200   8.419680  23.746400  -0.010759  -0.009237  16.622500  -0.001120  -0.002796  25.713700   2.190650   4.538070  25.801700  -0.007702   0.005271  17.183900  -0.001070  -0.004234  26.071200  -2.754090  -5.605670  26.206700  -0.002619   0.007696  17.465500  -0.007478  -0.010278  34.983100  -3.587010  -5.113860  52.713000   0.006075   0.001504  35.108800   0.006898   0.001130   1.620870   2.728910   1.963430   0.439666   1.430510  11.324100  -5.174870  -2.946030   5.253420  -0.000000   0.000000  -0.000000   1.789820   2.663350  -5.760980  -0.339448   3.384800 -10.096100  -8.356510  -0.014604   1.008990  -0.000000   0.000000   0.000000
  0.568799  90.004700   0.666933  -1.435510  -2.865350  -2.790780   0.059026   2.495280  -1.089000   0.165798   4.988990  -2.183700   1.194210   0.041099  -0.007671   1.964030   0.082743   6.989590  -4.484440  -0.510710   3.204280 -71.558400  18.029800   2.926960  -2.360950  -4.783010 -16.550100  15.971600  -2.379860   5.030240  37.491000  24.198600 -55.408600 -27.952900  -0.005105   0.012420  -8.976470   0.000732  -0.000000 -31.331100   7.845410 -12.638400 -26.346400   0.005632  -0.000648 -18.442000   0.002505   0.011904 -28.514500   1.061480  -1.961570 -36.412200   0.001534   0.003670 -24.250400  -0.002664   0.007335 -27.428700   0.386496  -0.746768 -28.870700   0.001217   0.002656 -19.227900   0.000727   0.001941 -31.340400   0.436701  -0.718501 -47.030700  -0.000636  -0.001588 -31.311700   0.004140  -0.002492  10.307400   1.883740   5.900740  69.235400  10.218400  -2.222190   2.287710  -4.502790  12.568900 -20.362200 -13.194500  -2.469840 -35.923200  32.752200  70.144400  33.085600   0.003156  -0.002009  11.544300  -0.010072  -0.010182  28.681600   4.641160   8.421260  23.746300  -0.010750  -0.009248  16.622400  -0.001099  -0.002760  25.713600   2.190670   4.538120  25.801600  -0.007698   0.005296  17.183800  -0.001062  -0.004224  26.078800  -2.754090  -5.605580  26.214200  -0.002612   0.007748  17.465600  -0.007478  -0.010301  34.986400  -3.586960  -5.113780  52.714600   0.006086   0.001478  35.111900   0.006912   0.001151   1.616390   2.750970   1.968990   0.435293   1.421700  11.323900  -5.167140  -2.951900   5.250950   0.000000   0.000000   0.000000   1.779240   2.693250  -5.755960  -0.329183   3.357990 -10.116200  -8.356630  -0.010387   1.032130  -0.000000   0.000000   0.000000
